<svg xmlns="http://www.w3.org/2000/svg" xmlns:xlink="http://www.w3.org/1999/xlink" width="400" zoomAndPan="magnify" viewBox="0 0 300 89.999999" height="120" preserveAspectRatio="xMidYMid meet" version="1.0"><defs><g/><clipPath id="ce944318d4"><rect x="0" width="270" y="0" height="66"/></clipPath></defs><g transform="matrix(1, 0, 0, 1, 15, 12)"><g clip-path="url(#ce944318d4)"><g fill="#e4e2dd" fill-opacity="1"><g transform="translate(1.237807, 44.496624)"><g><path d="M 5.453125 -22.203125 L 15.242188 -22.203125 L 15.242188 -33.765625 L 5.453125 -41.585938 Z M 33.898438 0 L 31.597656 0 L 41.453125 7.882812 L 43.753906 7.882812 L 43.753906 -33.570312 L 33.898438 -41.585938 Z M 5.453125 -19.972656 L 5.453125 0 L 3.21875 0 L 13.203125 7.882812 L 15.242188 7.882812 L 15.242188 -12.21875 L 31.664062 -12.21875 L 31.664062 -19.972656 Z M 5.453125 -19.972656 "/></g></g></g><g fill="#e4e2dd" fill-opacity="1"><g transform="translate(47.355644, 44.496624)"><g><path d="M 13.863281 -25.6875 C 7.09375 -25.6875 1.90625 -20.035156 1.90625 -13.664062 C 1.90625 -7.816406 6.175781 -2.5625 12.746094 -1.839844 C 12.285156 -3.417969 12.21875 -4.140625 12.21875 -5.386719 C 12.21875 -11.890625 17.476562 -17.476562 24.042969 -17.476562 C 24.371094 -17.476562 24.832031 -17.476562 25.292969 -17.410156 C 23.453125 -22.664062 18.921875 -25.6875 13.863281 -25.6875 Z M 23.191406 -24.570312 C 26.539062 -21.480469 28.183594 -18 28.183594 -13.796875 C 28.183594 -5.78125 21.613281 0.589844 13.992188 0.589844 C 10.90625 0.589844 8.015625 -0.394531 5.320312 -2.234375 L 15.699219 5.976562 C 17.476562 7.359375 21.21875 8.804688 24.175781 8.804688 C 32.191406 8.804688 38.496094 2.300781 38.496094 -5.519531 C 38.496094 -9.984375 36.527344 -13.992188 33.042969 -16.753906 Z M 23.191406 -24.570312 "/></g></g></g><g fill="#e4e2dd" fill-opacity="1"><g transform="translate(84.604666, 44.496624)"><g><path d="M 4.925781 -27.59375 L 4.925781 -20.367188 C 6.503906 -22.46875 7.292969 -23.386719 8.476562 -24.570312 Z M 19.3125 -26.277344 C 19.90625 -25.753906 20.429688 -25.425781 20.957031 -24.570312 L 19.578125 -22.597656 C 18 -24.4375 16.09375 -25.6875 13.796875 -25.6875 C 11.234375 -25.6875 8.539062 -23.453125 4.925781 -18.199219 L 4.925781 0 L 2.757812 0 L 12.613281 7.753906 L 14.78125 7.753906 L 14.78125 -10.3125 C 17.738281 -14.976562 21.152344 -17.738281 23.980469 -17.738281 C 26.015625 -17.738281 27.59375 -16.292969 28.117188 -15.964844 L 29.496094 -14.78125 L 30.875 -16.753906 C 30.285156 -17.476562 29.824219 -18 29.5625 -18.199219 Z M 19.3125 -26.277344 "/></g></g></g><g fill="#e4e2dd" fill-opacity="1"><g transform="translate(113.641824, 44.496624)"><g><path d="M 13.863281 -25.6875 C 7.09375 -25.6875 1.90625 -20.035156 1.90625 -13.664062 C 1.90625 -7.816406 6.175781 -2.5625 12.746094 -1.839844 C 12.285156 -3.417969 12.21875 -4.140625 12.21875 -5.386719 C 12.21875 -11.890625 17.476562 -17.476562 24.042969 -17.476562 C 24.371094 -17.476562 24.832031 -17.476562 25.292969 -17.410156 C 23.453125 -22.664062 18.921875 -25.6875 13.863281 -25.6875 Z M 23.191406 -24.570312 C 26.539062 -21.480469 28.183594 -18 28.183594 -13.796875 C 28.183594 -5.78125 21.613281 0.589844 13.992188 0.589844 C 10.90625 0.589844 8.015625 -0.394531 5.320312 -2.234375 L 15.699219 5.976562 C 17.476562 7.359375 21.21875 8.804688 24.175781 8.804688 C 32.191406 8.804688 38.496094 2.300781 38.496094 -5.519531 C 38.496094 -9.984375 36.527344 -13.992188 33.042969 -16.753906 Z M 23.191406 -24.570312 "/></g></g></g><g fill="#e4e2dd" fill-opacity="1"><g transform="translate(150.890856, 44.496624)"><g><path d="M 4.992188 0 L 2.890625 0 L 12.679688 7.753906 L 14.847656 7.753906 L 14.847656 -33.765625 L 4.992188 -41.585938 Z M 4.992188 0 "/></g></g></g><g fill="#e4e2dd" fill-opacity="1"><g transform="translate(167.577356, 44.496624)"><g><path d="M 13.863281 -25.6875 C 7.09375 -25.6875 1.90625 -20.035156 1.90625 -13.664062 C 1.90625 -7.816406 6.175781 -2.5625 12.746094 -1.839844 C 12.285156 -3.417969 12.21875 -4.140625 12.21875 -5.386719 C 12.21875 -11.890625 17.476562 -17.476562 24.042969 -17.476562 C 24.371094 -17.476562 24.832031 -17.476562 25.292969 -17.410156 C 23.453125 -22.664062 18.921875 -25.6875 13.863281 -25.6875 Z M 23.191406 -24.570312 C 26.539062 -21.480469 28.183594 -18 28.183594 -13.796875 C 28.183594 -5.78125 21.613281 0.589844 13.992188 0.589844 C 10.90625 0.589844 8.015625 -0.394531 5.320312 -2.234375 L 15.699219 5.976562 C 17.476562 7.359375 21.21875 8.804688 24.175781 8.804688 C 32.191406 8.804688 38.496094 2.300781 38.496094 -5.519531 C 38.496094 -9.984375 36.527344 -13.992188 33.042969 -16.753906 Z M 23.191406 -24.570312 "/></g></g></g><g fill="#e4e2dd" fill-opacity="1"><g transform="translate(204.826387, 44.496624)"><g><path d="M 23.191406 -28.316406 L 23.191406 -26.34375 L 15.964844 -26.34375 C 19.378906 -23.914062 20.824219 -21.21875 20.824219 -18 C 20.824219 -13.53125 18.066406 -9.460938 10.707031 -8.277344 C 5.714844 -7.488281 4.53125 -6.503906 4.53125 -4.925781 C 4.53125 -0.132812 14.320312 -3.808594 19.972656 -0.261719 C 27.527344 -1.117188 30.746094 -6.109375 30.746094 -10.378906 C 30.746094 -13.46875 28.773438 -16.292969 25.882812 -18.460938 L 32.980469 -18.460938 L 32.980469 -20.496094 Z M 10.644531 -26.148438 C 6.308594 -26.148438 2.695312 -22.535156 2.695312 -18.132812 C 2.695312 -13.53125 6.570312 -10.25 10.378906 -10.25 C 11.101562 -10.25 11.824219 -10.3125 12.546875 -10.511719 C 12.808594 -14.191406 14.976562 -16.882812 18.589844 -17.867188 C 18.527344 -22.664062 14.914062 -26.148438 10.644531 -26.148438 Z M 12.480469 0 C 4.140625 0 1.839844 2.957031 1.839844 5.386719 C 1.839844 7.621094 3.480469 10.578125 11.167969 10.707031 C 12.480469 8.082031 15.636719 7.292969 19.3125 7.292969 L 20.101562 7.292969 C 20.628906 6.242188 20.757812 5.648438 20.757812 4.925781 C 20.757812 3.679688 20.367188 0 12.480469 0 Z M 30.546875 8.34375 C 29.429688 7.421875 26.277344 4.796875 21.023438 0.527344 C 22.140625 1.773438 22.796875 3.023438 22.796875 4.796875 C 22.796875 9.460938 19.183594 12.746094 11.300781 12.746094 C 7.816406 12.746094 5.125 12.351562 2.695312 10.445312 L 2.628906 10.445312 L 11.167969 17.210938 C 13.992188 19.445312 17.410156 20.496094 21.746094 20.496094 C 27.855469 20.496094 32.652344 17.476562 32.652344 12.875 C 32.652344 10.90625 31.929688 9.394531 30.546875 8.34375 Z M 30.546875 8.34375 "/></g></g></g><g fill="#e4e2dd" fill-opacity="1"><g transform="translate(234.520485, 44.496624)"><g><path d="M 12.152344 -26.148438 C 7.359375 -26.148438 3.351562 -22.925781 2.101562 -16.6875 L 14.648438 -16.6875 C 16.6875 -18.261719 18.261719 -19.050781 21.089844 -19.3125 C 19.25 -24.242188 16.03125 -26.148438 12.152344 -26.148438 Z M 20.300781 -24.898438 C 23.453125 -21.746094 24.109375 -18.328125 24.109375 -14.914062 L 1.839844 -14.914062 L 1.839844 -13.925781 C 1.839844 -7.226562 6.109375 -2.101562 12.417969 -1.839844 C 12.085938 -2.957031 11.695312 -4.203125 11.695312 -5.453125 C 11.695312 -5.914062 11.757812 -6.4375 11.824219 -7.160156 L 33.964844 -7.160156 L 33.964844 -8.738281 C 33.964844 -12.152344 32.847656 -15.109375 27.066406 -19.578125 C 22.863281 -22.796875 20.628906 -24.703125 20.300781 -24.898438 Z M 23.714844 -5.519531 L 23.714844 -3.152344 C 19.972656 -0.527344 17.34375 0.527344 13.925781 0.527344 C 10.707031 0.527344 7.949219 -0.261719 5.058594 -2.234375 L 13.992188 4.925781 C 16.753906 7.160156 20.101562 8.410156 23.191406 8.410156 C 26.671875 8.410156 29.890625 7.292969 33.570312 4.597656 L 33.570312 2.234375 Z M 23.714844 -5.519531 "/></g></g></g></g></g></svg>